<svg xmlns="http://www.w3.org/2000/svg" width="110" height="110" viewBox="0 0 110 110" fill="none">
  <path d="M0 55C0 24.6243 24.6243 0 55 0C85.3757 0 110 24.6243 110 55C110 85.3757 85.3757 110 55 110C24.6243 110 0 85.3757 0 55Z" fill="white"/>
  <g filter="url(#filter0_i_2053_4192)">
    <path fill-rule="evenodd" clip-rule="evenodd" d="M27.2127 22.7157C20.9535 27.0689 10.3928 38.0533 8.51501 54.2341C6.06343 75.3595 20.7729 99.4574 46.3545 103.385C66.8198 106.528 82.3109 94.5742 87.4983 88.2047C99.01 72.9179 97.7309 60.2852 97.7309 60.2852C97.7309 60.2852 96.5584 66.7607 92.0816 70.5825C86.5846 75.2752 82.7017 75.3596 81.849 75.3596C79.5395 73.4841 73.5989 68.6928 67.8857 65.8053C60.7441 62.196 50.1917 56.145 50.5115 50.2002C50.8341 44.2036 56.5871 41.6014 66.7132 42.3445C67.033 42.368 64.5814 46.803 62.1298 48.8201C66.429 49.3862 76.2637 50.9433 79.9304 53.9157C83.5971 56.8882 82.7372 59.4005 81.849 60.2852C82.9504 60.356 85.7289 60.1366 88.0312 58.6928C90.3335 57.2491 91.4776 55.5435 91.7619 54.8712C90.8381 55.2604 88.7987 55.7204 88.0312 54.4465C87.2638 53.1726 87.4272 51.9341 87.6048 51.4741C84.4071 51.0849 78.3102 49.5845 79.504 46.697C80.9963 43.0876 85.2599 42.9815 86.6455 43.4061C88.0312 43.8307 90.696 44.8923 91.0157 50.6248C91.028 50.8441 91.3137 50.6322 91.8062 50.2668C92.9475 49.4202 95.1993 47.7499 97.7309 48.714C99.5429 49.4041 99.2587 53.3142 97.7309 54.4465C99.5429 54.0927 104.233 51.6863 105.405 45.9539C105.492 45.5299 105.076 45.4784 104.251 45.3764C102.851 45.2031 100.273 44.884 96.9848 42.3445C92.8064 39.1173 91.6197 38.169 91.5487 38.0982L91.7619 34.1704C91.328 33.894 90.8607 33.5975 90.3688 33.2855C86.3885 30.7603 80.798 27.2138 78.3315 25.0408C75.8009 22.8114 70.4438 16.4419 68.9516 3.91539C68.6652 1.51148 67.6725 17.1851 71.0205 23.7669C71.6774 25.0584 57.5901 12.7265 55.7781 7.20629C55.7093 6.99675 56.9069 15.062 62.4496 22.3869C63.0004 23.1147 62.0893 22.9959 60.1669 22.7452C56.2017 22.228 47.9341 21.1497 39.3195 25.7839C24.7167 33.6396 23.5442 47.8647 24.7167 54.4465C25.5677 59.2236 27.2749 65.9116 36.1218 74.6165C38.0053 76.4697 32.6044 81.3044 23.4376 75.3596C18.1081 71.9033 12.2457 66.3361 13.3116 51.4741C14.4387 35.7576 24.0384 25.23 27.2127 22.7157ZM80.7831 32.8964L88.0312 36.2934L85.3665 37.8858C84.8335 37.1427 83.5971 35.4866 82.9149 34.8072C82.2327 34.1278 81.2094 33.2503 80.7831 32.8964Z" fill="url(#paint0_linear_2053_4192)"/>
  </g>
  <mask id="mask0_2053_4192" style="mask-type:alpha" maskUnits="userSpaceOnUse" x="8" y="3" width="98" height="101">
    <path fill-rule="evenodd" clip-rule="evenodd" d="M27.2127 22.7157C20.9535 27.0689 10.3928 38.0533 8.51501 54.2341C6.06343 75.3595 20.7729 99.4574 46.3545 103.385C66.8198 106.528 82.3109 94.5742 87.4983 88.2047C99.01 72.9179 97.7309 60.2852 97.7309 60.2852C97.7309 60.2852 96.5584 66.7607 92.0816 70.5825C86.5846 75.2752 82.7017 75.3596 81.849 75.3596C79.5395 73.4841 73.5989 68.6928 67.8857 65.8053C60.7441 62.196 50.1917 56.145 50.5115 50.2002C50.8341 44.2036 56.5871 41.6014 66.7132 42.3445C67.033 42.368 64.5814 46.803 62.1298 48.8201C66.429 49.3862 76.2637 50.9433 79.9304 53.9157C83.5971 56.8882 82.7372 59.4005 81.849 60.2852C82.9504 60.356 85.7289 60.1366 88.0312 58.6928C90.3335 57.2491 91.4776 55.5435 91.7619 54.8712C90.8381 55.2604 88.7987 55.7204 88.0312 54.4465C87.2638 53.1726 87.4272 51.9341 87.6048 51.4741C84.4071 51.0849 78.3102 49.5845 79.504 46.697C80.9963 43.0876 85.2599 42.9815 86.6455 43.4061C88.0312 43.8307 90.696 44.8923 91.0157 50.6248C91.028 50.8441 91.3137 50.6322 91.8062 50.2668C92.9475 49.4202 95.1993 47.7499 97.7309 48.714C99.5429 49.4041 99.2587 53.3142 97.7309 54.4465C99.5429 54.0927 104.233 51.6863 105.405 45.9539C105.492 45.5299 105.076 45.4784 104.251 45.3764C102.851 45.2031 100.273 44.884 96.9848 42.3445C92.8064 39.1173 91.6197 38.169 91.5487 38.0982L91.7619 34.1704C91.328 33.894 90.8607 33.5975 90.3688 33.2855C86.3885 30.7603 80.798 27.2138 78.3315 25.0408C75.8009 22.8114 70.4438 16.4419 68.9516 3.91539C68.6652 1.51148 67.6725 17.1851 71.0205 23.7669C71.6774 25.0584 57.5901 12.7265 55.7781 7.20629C55.7093 6.99675 56.9069 15.062 62.4496 22.3869C63.0004 23.1147 62.0893 22.9959 60.1669 22.7452C56.2017 22.228 47.9341 21.1497 39.3195 25.7839C24.7167 33.6396 23.5442 47.8647 24.7167 54.4465C25.5677 59.2236 27.2749 65.9116 36.1218 74.6165C38.0053 76.4697 32.6044 81.3044 23.4376 75.3596C18.1081 71.9033 12.2457 66.3361 13.3116 51.4741C14.4387 35.7576 24.0384 25.23 27.2127 22.7157ZM80.7831 32.8964L88.0312 36.2934L85.3665 37.8858C84.8335 37.1427 83.5971 35.4866 82.9149 34.8072C82.2327 34.1278 81.2094 33.2503 80.7831 32.8964Z" fill="url(#paint1_linear_2053_4192)"/>
  </mask>
  <g mask="url(#mask0_2053_4192)">
    <path d="M53.4712 40.7508C58.3397 39.9821 64.0951 41.421 66.9175 42.1667C65.0841 44.0001 51.1427 44.4793 51.0369 49.5927C50.9499 53.7944 55.9621 59.1426 63.2083 62.6958C75.5914 68.768 80.4599 73.5618 82.1533 75.0532C89.0052 81.0878 88.0296 87.5369 88.0296 87.5369C88.0296 87.5369 85.2627 91.776 79.3357 95.7194C73.4088 99.6628 68.2925 101.292 68.2925 101.292C68.2925 101.292 79.6132 92.098 65.6426 80.8058C59.2754 75.6594 40.7706 62.8024 40.9823 53.5343C41.1744 45.1207 48.0734 41.603 53.4712 40.7508Z" fill="url(#paint2_linear_2053_4192)"/>
    <path d="M86.3855 80.3928C84.7904 77.4582 82.4956 75.9129 81.582 75.1665C82.788 75.1665 88.2492 74.3152 93.0729 69.6237C96.014 66.7633 97.3056 62.2666 97.7441 59.9209C97.8538 62.2666 98.2256 66.2118 96.4715 71.6496C94.6375 77.3352 91.5356 83.5916 88.0275 87.5367C88.0275 85.4042 87.6876 82.7886 86.3855 80.3928Z" fill="url(#paint3_linear_2053_4192)"/>
    <g filter="url(#filter1_i_2053_4192)">
      <path d="M46.7881 83.8169C44.1408 81.3327 38.2516 76.6504 35.75 74.25C35.4284 81.4512 14.3201 77.357 13.4453 55.7534C12.6948 37.2209 22.7727 26.8427 28.1333 22.0771C21.0573 26.4191 8.94238 39.9743 8.29912 55.7534C7.72107 69.9325 12.266 81.2753 20.8429 89.8532C29.9493 98.9606 40.912 102.684 46.0939 103.39C48.0237 102.861 51.1248 99.2783 52.0415 95.2541C53.1753 90.2768 48.9324 85.829 46.7881 83.8169Z" fill="url(#paint4_linear_2053_4192)"/>
    </g>
  </g>
  <defs>
    <filter id="filter0_i_2053_4192" x="8.25" y="1.66699" width="97.168" height="102.235" filterUnits="userSpaceOnUse" color-interpolation-filters="sRGB">
      <feFlood flood-opacity="0" result="BackgroundImageFix"/>
      <feBlend mode="normal" in="SourceGraphic" in2="BackgroundImageFix" result="shape"/>
      <feColorMatrix in="SourceAlpha" type="matrix" values="0 0 0 0 0 0 0 0 0 0 0 0 0 0 0 0 0 0 127 0" result="hardAlpha"/>
      <feOffset dy="-2"/>
      <feGaussianBlur stdDeviation="2"/>
      <feComposite in2="hardAlpha" operator="arithmetic" k2="-1" k3="1"/>
      <feColorMatrix type="matrix" values="0 0 0 0 1 0 0 0 0 0.991373 0 0 0 0 0.956863 0 0 0 1 0"/>
      <feBlend mode="normal" in2="shape" result="effect1_innerShadow_2053_4192"/>
    </filter>
    <filter id="filter1_i_2053_4192" x="8.25" y="20.0771" width="43.9805" height="83.3135" filterUnits="userSpaceOnUse" color-interpolation-filters="sRGB">
      <feFlood flood-opacity="0" result="BackgroundImageFix"/>
      <feBlend mode="normal" in="SourceGraphic" in2="BackgroundImageFix" result="shape"/>
      <feColorMatrix in="SourceAlpha" type="matrix" values="0 0 0 0 0 0 0 0 0 0 0 0 0 0 0 0 0 0 127 0" result="hardAlpha"/>
      <feOffset dy="-2"/>
      <feGaussianBlur stdDeviation="2"/>
      <feComposite in2="hardAlpha" operator="arithmetic" k2="-1" k3="1"/>
      <feColorMatrix type="matrix" values="0 0 0 0 1 0 0 0 0 0.991373 0 0 0 0 0.956863 0 0 0 1 0"/>
      <feBlend mode="normal" in2="shape" result="effect1_innerShadow_2053_4192"/>
    </filter>
    <linearGradient id="paint0_linear_2053_4192" x1="64.3077" y1="12.6756" x2="64.3077" y2="94.8935" gradientUnits="userSpaceOnUse">
      <stop stop-color="#F5CC2C"/>
      <stop offset="0.985" stop-color="#997D0F"/>
    </linearGradient>
    <linearGradient id="paint1_linear_2053_4192" x1="23.1987" y1="53.7845" x2="105.417" y2="53.7845" gradientUnits="userSpaceOnUse">
      <stop stop-color="#C7AE49"/>
      <stop offset="0.985" stop-color="#997D0F"/>
    </linearGradient>
    <linearGradient id="paint2_linear_2053_4192" x1="64.4843" y1="40.4527" x2="64.4843" y2="100.833" gradientUnits="userSpaceOnUse">
      <stop stop-color="#C8AC3B"/>
      <stop offset="1" stop-color="#EAD78B"/>
    </linearGradient>
    <linearGradient id="paint3_linear_2053_4192" x1="98.3352" y1="61.307" x2="88.0904" y2="86.5662" gradientUnits="userSpaceOnUse">
      <stop stop-color="#FFE88B"/>
      <stop offset="1" stop-color="#E2CC72"/>
    </linearGradient>
    <linearGradient id="paint4_linear_2053_4192" x1="30.2404" y1="22.0771" x2="30.2404" y2="102.879" gradientUnits="userSpaceOnUse">
      <stop offset="0.111391" stop-color="#FFE88D"/>
      <stop offset="1" stop-color="#B79D38"/>
    </linearGradient>
  </defs>
</svg>